# Blender 4.3.0
# www.blender.org
mtllib Key.mtl
o Cube
v 0.056432 1.129773 -0.038238
v 0.056432 -0.369732 -0.038238
v 0.056432 1.129773 0.091296
v 0.056432 -0.369732 0.091296
v -0.056432 1.129773 -0.038238
v -0.056432 -0.369732 -0.038238
v -0.056432 1.129773 0.091296
v -0.056432 -0.369732 0.091296
v 0.056432 0.951672 -0.038238
v 0.056432 0.773572 -0.038238
v 0.056432 0.595472 -0.038238
v 0.056432 0.417371 -0.038238
v 0.056432 0.239271 -0.038238
v 0.056432 0.061170 -0.038238
v 0.056432 -0.116930 -0.038238
v 0.056432 -0.295031 -0.038238
v -0.056432 -0.295031 0.091296
v -0.056432 -0.116930 0.091296
v -0.056432 0.061170 0.091296
v -0.056432 0.239271 0.091296
v -0.056432 0.417371 0.091296
v -0.056432 0.595472 0.091296
v -0.056432 0.773572 0.091296
v -0.056432 0.951673 0.091296
v 0.056432 0.951672 0.091296
v 0.056432 0.773572 0.091296
v 0.056432 0.595472 0.091296
v 0.056432 0.417371 0.091296
v 0.056432 0.239271 0.091296
v 0.056432 0.061170 0.091296
v 0.056432 -0.116930 0.091296
v 0.056432 -0.295031 0.091296
v -0.056432 0.951672 -0.038238
v -0.056432 0.773572 -0.038238
v -0.056432 0.595472 -0.038238
v -0.056432 0.417371 -0.038238
v -0.056432 0.239271 -0.038238
v -0.056432 0.061170 -0.038238
v -0.056432 -0.116930 -0.038238
v -0.056432 -0.295031 -0.038238
v 0.056432 0.239271 -0.136222
v 0.056432 0.061170 -0.136222
v 0.056432 -0.116930 -0.136222
v 0.056432 -0.295031 -0.136222
v -0.056432 0.239271 -0.136222
v -0.056432 0.061170 -0.136222
v -0.056432 -0.116930 -0.136222
v -0.056432 -0.295031 -0.136222
v -0.056432 -0.295031 -0.288247
v -0.056432 -0.116930 -0.288247
v 0.056432 -0.116930 -0.288247
v 0.056432 -0.295031 -0.288247
v -0.056432 0.061170 -0.288247
v -0.056432 0.239271 -0.288247
v 0.056432 0.239271 -0.288247
v 0.056432 0.061170 -0.288247
v 0.056432 1.165522 0.254023
v -0.056432 1.165522 0.254023
v 0.056432 1.165522 -0.200965
v -0.056432 1.165522 -0.200965
v 0.056432 1.233112 0.354575
v -0.056432 1.233112 0.354575
v 0.056432 1.233112 -0.301516
v -0.056432 1.233112 -0.301516
v 0.056432 1.665936 0.354575
v -0.056432 1.665936 0.354575
v 0.056432 1.665936 -0.301516
v -0.056432 1.665936 -0.301516
v 0.056432 1.761693 0.262143
v -0.056432 1.761693 0.262143
v 0.056432 1.761693 -0.209085
v -0.056432 1.761693 -0.209085
vn -1.0000 -0.0000 -0.0000
vn -0.0000 -0.0000 1.0000
vn -0.0000 -1.0000 -0.0000
vn 1.0000 -0.0000 -0.0000
vn -0.0000 -0.0000 -1.0000
vn -0.0000 1.0000 -0.0000
vn -0.0000 -0.9767 -0.2146
vn -0.0000 -0.9767 0.2146
vn -0.0000 -0.8299 0.5579
vn -0.0000 -0.8299 -0.5579
vn -0.0000 0.6945 0.7195
vn -0.0000 0.6945 -0.7195
vt 0.625000 0.000000
vt 0.625000 0.250000
vt 0.625000 0.750000
vt 0.597222 1.000000
vt 0.597222 0.750000
vt 0.597222 0.000000
vt 0.597222 0.250000
vt 0.375000 0.500000
vt 0.125000 0.750000
vt 0.125000 0.500000
vt 0.625000 0.500000
vt 0.597222 0.500000
vt 0.402778 0.250000
vt 0.375000 0.250000
vt 0.430556 0.500000
vt 0.458333 0.500000
vt 0.458333 0.250000
vt 0.430556 0.250000
vt 0.402778 0.500000
vt 0.513889 0.250000
vt 0.486111 0.500000
vt 0.486111 0.250000
vt 0.541667 0.250000
vt 0.513889 0.500000
vt 0.569444 0.250000
vt 0.541667 0.500000
vt 0.569444 0.500000
vt 0.375000 0.750000
vt 0.402778 0.750000
vt 0.430556 0.750000
vt 0.458333 0.750000
vt 0.486111 0.750000
vt 0.513889 0.750000
vt 0.541667 0.750000
vt 0.569444 0.750000
vt 0.375000 0.000000
vt 0.402778 0.000000
vt 0.458333 0.000000
vt 0.430556 0.000000
vt 0.486111 0.000000
vt 0.513889 0.000000
vt 0.541667 0.000000
vt 0.569444 0.000000
vt 0.375000 1.000000
vt 0.402778 1.000000
vt 0.430556 1.000000
vt 0.458333 1.000000
vt 0.486111 1.000000
vt 0.513889 1.000000
vt 0.541667 1.000000
vt 0.569444 1.000000
vt 0.625000 1.000000
vt 0.875000 0.500000
vt 0.875000 0.750000
s 0
g Cube_Material
usemtl Material
f 7/1/1 60/2/1 5/2/1
f 3/3/2 24/4/2 25/5/2
f 24/6/1 5/2/1 33/7/1
f 2/8/3 8/9/3 6/10/3
f 1/11/4 25/5/4 9/12/4
f 5/2/5 9/12/5 33/7/5
f 40/13/5 2/8/5 6/14/5
f 15/15/4 42/16/4 14/16/4
f 38/17/1 47/18/1 39/18/1
f 40/13/3 44/19/3 16/19/3
f 36/20/5 13/21/5 37/22/5
f 35/23/5 12/24/5 36/20/5
f 34/25/5 11/26/5 35/23/5
f 33/7/5 10/27/5 34/25/5
f 16/19/4 4/28/4 2/8/4
f 15/15/4 32/29/4 16/19/4
f 14/16/4 31/30/4 15/15/4
f 13/21/4 30/31/4 14/16/4
f 12/24/4 29/32/4 13/21/4
f 11/26/4 28/33/4 12/24/4
f 10/27/4 27/34/4 11/26/4
f 9/12/4 26/35/4 10/27/4
f 8/36/1 40/13/1 6/14/1
f 17/37/1 39/18/1 40/13/1
f 19/38/1 39/18/1 18/39/1
f 19/38/1 37/22/1 38/17/1
f 20/40/1 36/20/1 37/22/1
f 21/41/1 35/23/1 36/20/1
f 22/42/1 34/25/1 35/23/1
f 23/43/1 33/7/1 34/25/1
f 32/29/2 8/44/2 4/28/2
f 31/30/2 17/45/2 32/29/2
f 30/31/2 18/46/2 31/30/2
f 29/32/2 19/47/2 30/31/2
f 28/33/2 20/48/2 29/32/2
f 27/34/2 21/49/2 28/33/2
f 26/35/2 22/50/2 27/34/2
f 25/5/2 23/51/2 26/35/2
f 3/3/4 59/11/4 57/3/4
f 46/17/5 43/15/5 47/18/5
f 58/1/1 64/2/1 60/2/1
f 13/21/6 45/22/6 37/22/6
f 39/18/1 48/13/1 40/13/1
f 16/19/4 43/15/4 15/15/4
f 37/22/1 46/17/1 38/17/1
f 14/16/4 41/21/4 13/21/4
f 50/18/5 52/19/5 49/13/5
f 50/18/1 48/13/1 47/18/1
f 51/15/6 47/18/6 43/15/6
f 52/19/4 43/15/4 44/19/4
f 49/13/3 44/19/3 48/13/3
f 54/22/5 56/16/5 53/17/5
f 54/22/1 46/17/1 45/22/1
f 55/21/6 45/22/6 41/21/6
f 56/16/4 41/21/4 42/16/4
f 53/17/3 42/16/3 46/17/3
f 5/2/7 59/11/7 1/11/7
f 3/3/8 58/52/8 7/52/8
f 64/2/5 67/11/5 63/11/5
f 57/3/9 62/52/9 58/52/9
f 60/2/10 63/11/10 59/11/10
f 57/3/4 63/11/4 61/3/4
f 67/11/4 69/3/4 65/3/4
f 63/11/4 65/3/4 61/3/4
f 62/1/1 68/2/1 64/2/1
f 61/3/2 66/52/2 62/52/2
f 72/53/6 69/3/6 71/11/6
f 66/1/1 72/2/1 68/2/1
f 65/3/11 70/52/11 66/52/11
f 68/2/12 71/11/12 67/11/12
f 7/1/1 58/1/1 60/2/1
f 3/3/2 7/52/2 24/4/2
f 24/6/1 7/1/1 5/2/1
f 2/8/3 4/28/3 8/9/3
f 1/11/4 3/3/4 25/5/4
f 5/2/5 1/11/5 9/12/5
f 40/13/5 16/19/5 2/8/5
f 15/15/4 43/15/4 42/16/4
f 38/17/1 46/17/1 47/18/1
f 40/13/3 48/13/3 44/19/3
f 36/20/5 12/24/5 13/21/5
f 35/23/5 11/26/5 12/24/5
f 34/25/5 10/27/5 11/26/5
f 33/7/5 9/12/5 10/27/5
f 16/19/4 32/29/4 4/28/4
f 15/15/4 31/30/4 32/29/4
f 14/16/4 30/31/4 31/30/4
f 13/21/4 29/32/4 30/31/4
f 12/24/4 28/33/4 29/32/4
f 11/26/4 27/34/4 28/33/4
f 10/27/4 26/35/4 27/34/4
f 9/12/4 25/5/4 26/35/4
f 8/36/1 17/37/1 40/13/1
f 17/37/1 18/39/1 39/18/1
f 19/38/1 38/17/1 39/18/1
f 19/38/1 20/40/1 37/22/1
f 20/40/1 21/41/1 36/20/1
f 21/41/1 22/42/1 35/23/1
f 22/42/1 23/43/1 34/25/1
f 23/43/1 24/6/1 33/7/1
f 32/29/2 17/45/2 8/44/2
f 31/30/2 18/46/2 17/45/2
f 30/31/2 19/47/2 18/46/2
f 29/32/2 20/48/2 19/47/2
f 28/33/2 21/49/2 20/48/2
f 27/34/2 22/50/2 21/49/2
f 26/35/2 23/51/2 22/50/2
f 25/5/2 24/4/2 23/51/2
f 3/3/4 1/11/4 59/11/4
f 46/17/5 42/16/5 43/15/5
f 58/1/1 62/1/1 64/2/1
f 13/21/6 41/21/6 45/22/6
f 39/18/1 47/18/1 48/13/1
f 16/19/4 44/19/4 43/15/4
f 37/22/1 45/22/1 46/17/1
f 14/16/4 42/16/4 41/21/4
f 50/18/5 51/15/5 52/19/5
f 50/18/1 49/13/1 48/13/1
f 51/15/6 50/18/6 47/18/6
f 52/19/4 51/15/4 43/15/4
f 49/13/3 52/19/3 44/19/3
f 54/22/5 55/21/5 56/16/5
f 54/22/1 53/17/1 46/17/1
f 55/21/6 54/22/6 45/22/6
f 56/16/4 55/21/4 41/21/4
f 53/17/3 56/16/3 42/16/3
f 5/2/7 60/2/7 59/11/7
f 3/3/8 57/3/8 58/52/8
f 64/2/5 68/2/5 67/11/5
f 57/3/9 61/3/9 62/52/9
f 60/2/10 64/2/10 63/11/10
f 57/3/4 59/11/4 63/11/4
f 67/11/4 71/11/4 69/3/4
f 63/11/4 67/11/4 65/3/4
f 62/1/1 66/1/1 68/2/1
f 61/3/2 65/3/2 66/52/2
f 72/53/6 70/54/6 69/3/6
f 66/1/1 70/1/1 72/2/1
f 65/3/11 69/3/11 70/52/11
f 68/2/12 72/2/12 71/11/12
